<?xml version="1.0" encoding="UTF-8"?>
<svg version="1.1" xmlns="http://www.w3.org/2000/svg" width="116" height="136">
<path d="M0 0 C38.28 0 76.56 0 116 0 C116 44.88 116 89.76 116 136 C112.26584263 135.25316853 109.79076609 134.61063957 106.44433594 133.09814453 C105.57282898 132.7074881 104.70132202 132.31683167 103.80340576 131.91433716 C102.87312561 131.49143402 101.94284546 131.06853088 100.984375 130.6328125 C100.01397278 130.19742157 99.04357056 129.76203064 98.04376221 129.31344604 C94.94362456 127.92216552 91.84653106 126.52428739 88.75 125.125 C85.66763065 123.73313342 82.58458195 122.34289675 79.49908447 120.95797729 C77.58165825 120.09729795 75.66597964 119.23271073 73.75238037 118.36355591 C71.18130096 117.20916205 68.59348897 116.10288163 66 115 C65.24404541 114.63939987 64.48809082 114.27879974 63.70922852 113.90727234 C59.26597246 112.01787979 56.56837205 111.76424137 51.99023438 113.43188477 C50.17780864 114.23850724 48.37929635 115.07691154 46.59375 115.94140625 C45.62900757 116.3800853 44.66426514 116.81876434 43.67028809 117.27073669 C40.60017415 118.67423997 37.55063558 120.11722101 34.5 121.5625 C32.45046022 122.50855357 30.39968759 123.45194109 28.34765625 124.39257812 C24.56043163 126.13275522 20.78124723 127.8883298 17.00976562 129.66235352 C15.34026532 130.44247184 13.67035239 131.22170779 12 132 C11.16106201 132.39347626 10.32212402 132.78695251 9.45776367 133.19235229 C8.65894775 133.55934235 7.86013184 133.9263324 7.03710938 134.30444336 C5.97719788 134.79538734 5.97719788 134.79538734 4.89587402 135.29624939 C3 136 3 136 0 136 C0 91.12 0 46.24 0 0 Z " fill="#8796A0" transform="translate(0,0)"/>
<path d="M0 0 C1.98 0 3.96 0 6 0 C6 44.88 6 89.76 6 136 C1 135 1 135 -1 133 C-1.23047829 130.67679405 -1.23047829 130.67679405 -1.20254517 127.71029663 C-1.19688034 126.58846481 -1.19121552 125.466633 -1.18537903 124.31080627 C-1.16883774 123.0743486 -1.15229645 121.83789093 -1.13525391 120.56396484 C-1.12579239 119.26644791 -1.11633087 117.96893097 -1.10658264 116.63209534 C-1.08036564 113.06815414 -1.04170062 109.50444242 -1.00085878 105.94064283 C-0.96029924 102.21843425 -0.9311066 98.4961373 -0.90072632 94.77383423 C-0.84143885 87.72249094 -0.77187686 80.67128764 -0.69865549 73.62007678 C-0.61580514 65.59364937 -0.54435997 57.56713326 -0.47388959 49.54058909 C-0.32864871 33.02692698 -0.16903056 16.5134361 0 0 Z " fill="#4F6072" transform="translate(110,0)"/>
<path d="M0 0 C1.98 0 3.96 0 6 0 C6.07000957 17.43686749 6.12294856 34.87369127 6.15543652 52.31066704 C6.17092063 60.40654059 6.1920395 68.50232694 6.22631836 76.59814453 C6.25617362 83.65256593 6.27556376 90.7069242 6.28226548 97.76140702 C6.28618436 101.49844623 6.29542594 105.23530478 6.31719017 108.97228622 C6.34126142 113.1389958 6.3419725 117.30538915 6.34057617 121.47216797 C6.351362 122.71797638 6.36214783 123.96378479 6.3732605 125.24734497 C6.36913651 126.37759094 6.36501251 127.50783691 6.36076355 128.67233276 C6.36352893 129.65865126 6.36629431 130.64496975 6.36914349 131.66117668 C6.18641746 132.81889422 6.18641746 132.81889422 6 134 C3 136 3 136 0 136 C0 91.12 0 46.24 0 0 Z " fill="#4F6072" transform="translate(0,0)"/>
<path d="M0 0 C1.07765625 0.19464844 2.1553125 0.38929687 3.265625 0.58984375 C4.08546875 0.74582031 4.9053125 0.90179688 5.75 1.0625 C5.75 2.0525 5.75 3.0425 5.75 4.0625 C3.44 3.4025 1.13 2.7425 -1.25 2.0625 C-1.25 3.7125 -1.25 5.3625 -1.25 7.0625 C-2.8278125 6.5984375 -2.8278125 6.5984375 -4.4375 6.125 C-5.695625 5.774375 -6.95375 5.42375 -8.25 5.0625 C-9.095625 4.815 -9.94125 4.5675 -10.8125 4.3125 C-14.01604554 3.98393123 -16.28769238 4.89135513 -19.25 6.0625 C-18.92 5.4025 -18.59 4.7425 -18.25 4.0625 C-17.59 4.0625 -16.93 4.0625 -16.25 4.0625 C-16.25 3.4025 -16.25 2.7425 -16.25 2.0625 C-14.25458132 1.38224363 -12.25382009 0.71759503 -10.25 0.0625 C-9.651875 -0.14375 -9.05375 -0.35 -8.4375 -0.5625 C-5.45101084 -1.07446957 -2.97044968 -0.54888744 0 0 Z " fill="#ADB6BC" transform="translate(69.25,94.9375)"/>
<path d="M0 0 C2.67695392 1.47232465 4.46410805 3.11289784 6.5 5.375 C5.63375 5.024375 4.7675 4.67375 3.875 4.3125 C0.18820766 3.28839102 -1.82140541 3.49533608 -5.5 4.375 C-6.28375 4.560625 -7.0675 4.74625 -7.875 4.9375 C-8.41125 5.081875 -8.9475 5.22625 -9.5 5.375 C-9.17 4.715 -8.84 4.055 -8.5 3.375 C-7.84 3.375 -7.18 3.375 -6.5 3.375 C-6.5 2.715 -6.5 2.055 -6.5 1.375 C-3.98497929 -0.30168047 -2.99068896 -0.74767224 0 0 Z " fill="#DBDDE3" transform="translate(59.5,95.625)"/>
<path d="M0 0 C1.9375 0.75 1.9375 0.75 4 2 C4.75 4.125 4.75 4.125 5 6 C3.35 6.33 1.7 6.66 0 7 C-0.38133299 5.0085944 -0.71325582 3.00720923 -1 1 C-0.67 0.67 -0.34 0.34 0 0 Z " fill="#DCE1E5" transform="translate(64,71)"/>
<path d="M0 0 C0.66 0.33 1.32 0.66 2 1 C1.67 2.98 1.34 4.96 1 7 C-0.65 6.67 -2.3 6.34 -4 6 C-2.25 1.125 -2.25 1.125 0 0 Z " fill="#DBDFE5" transform="translate(51,71)"/>
<path d="M0 0 C1.32 0.66 2.64 1.32 4 2 C4 3.65 4 5.3 4 7 C2.125 6.75 2.125 6.75 0 6 C-1.25 3.9375 -1.25 3.9375 -2 2 C-1.34 1.34 -0.68 0.68 0 0 Z " fill="#DAE2E7" transform="translate(42,33)"/>
<path d="M0 0 C0 1.65 0 3.3 0 5 C-1.98 5 -3.96 5 -6 5 C-6.33 4.34 -6.66 3.68 -7 3 C-4.49955934 -0.00052879 -4.2621484 0 0 0 Z " fill="#DFE0E4" transform="translate(83,47)"/>
<path d="M0 0 C1.32 0.66 2.64 1.32 4 2 C3.25 3.9375 3.25 3.9375 2 6 C-0.125 6.75 -0.125 6.75 -2 7 C-2.125 4.625 -2.125 4.625 -2 2 C-1.34 1.34 -0.68 0.68 0 0 Z " fill="#DBE4E9" transform="translate(72,33)"/>
<path d="M0 0 C-2.49858542 2.49858542 -4.70964513 3.70966476 -8 5 C-10.875 4.1875 -10.875 4.1875 -13 3 C-12.67 2.34 -12.34 1.68 -12 1 C-7.973409 0.22565558 -4.09613971 -0.12412545 0 0 Z " fill="#C5CFD3" transform="translate(50,95)"/>
<path d="M0 0 C1.98 0 3.96 0 6 0 C6.33 0.99 6.66 1.98 7 3 C6.67 3.66 6.34 4.32 6 5 C4.35 4.67 2.7 4.34 1 4 C0.67 2.68 0.34 1.36 0 0 Z " fill="#E1E2E8" transform="translate(74,63)"/>
<path d="M0 0 C1.4540625 0.0309375 1.4540625 0.0309375 2.9375 0.0625 C2.6075 1.3825 2.2775 2.7025 1.9375 4.0625 C0.2875 4.3925 -1.3625 4.7225 -3.0625 5.0625 C-3.625 3.125 -3.625 3.125 -4.0625 1.0625 C-3.0625 0.0625 -3.0625 0.0625 0 0 Z " fill="#E2E3E9" transform="translate(39.0625,62.9375)"/>
<path d="M0 0 C1.875 0.3125 1.875 0.3125 4 1 C4.66 1.99 5.32 2.98 6 4 C5 5 5 5 1.9375 5.0625 C0.4834375 5.0315625 0.4834375 5.0315625 -1 5 C-0.67 3.35 -0.34 1.7 0 0 Z " fill="#E3E4E8" transform="translate(34,47)"/>
<path d="M0 0 C1.32 0 2.64 0 4 0 C4 1.98 4 3.96 4 6 C2.68 6 1.36 6 0 6 C0 4.02 0 2.04 0 0 Z " fill="#DFE3E5" transform="translate(56,28)"/>
</svg>
