<?xml version="1.0" encoding="UTF-8"?>
<svg version="1.1" xmlns="http://www.w3.org/2000/svg" width="116" height="136">
<path d="M0 0 C38.28 0 76.56 0 116 0 C116 44.88 116 89.76 116 136 C112.26584263 135.25316853 109.79076609 134.61063957 106.44433594 133.09814453 C105.57282898 132.7074881 104.70132202 132.31683167 103.80340576 131.91433716 C102.87312561 131.49143402 101.94284546 131.06853088 100.984375 130.6328125 C100.01397278 130.19742157 99.04357056 129.76203064 98.04376221 129.31344604 C94.94362456 127.92216552 91.84653106 126.52428739 88.75 125.125 C85.66763065 123.73313342 82.58458195 122.34289675 79.49908447 120.95797729 C77.58165825 120.09729795 75.66597964 119.23271073 73.75238037 118.36355591 C71.18130096 117.20916205 68.59348897 116.10288163 66 115 C65.24404541 114.63939987 64.48809082 114.27879974 63.70922852 113.90727234 C59.26597246 112.01787979 56.56837205 111.76424137 51.99023438 113.43188477 C50.17780864 114.23850724 48.37929635 115.07691154 46.59375 115.94140625 C45.62900757 116.3800853 44.66426514 116.81876434 43.67028809 117.27073669 C40.60017415 118.67423997 37.55063558 120.11722101 34.5 121.5625 C32.45046022 122.50855357 30.39968759 123.45194109 28.34765625 124.39257812 C24.56043163 126.13275522 20.78124723 127.8883298 17.00976562 129.66235352 C15.34026532 130.44247184 13.67035239 131.22170779 12 132 C11.16106201 132.39347626 10.32212402 132.78695251 9.45776367 133.19235229 C8.65894775 133.55934235 7.86013184 133.9263324 7.03710938 134.30444336 C5.97719788 134.79538734 5.97719788 134.79538734 4.89587402 135.29624939 C3 136 3 136 0 136 C0 91.12 0 46.24 0 0 Z " fill="#CC2100" transform="translate(0,0)"/>
<path d="M0 0 C8.78418864 1.24819732 15.69703148 7.96852413 21.2421875 14.53515625 C28.68720934 24.97473132 30.14143097 36.43098683 29 49 C26.86348886 55.97860414 21.86749333 60.87752964 16 65 C10.0310466 68.12013473 2.15326909 67.88603074 -4.34375 66.5 C-10.31453255 64.47911975 -15.05898613 60.98870452 -18.375 55.5625 C-21.31483492 49.04051328 -21.11862837 41.12157725 -19.26953125 34.30859375 C-16.08792233 26.63377388 -11.49004611 21.6063185 -4 18 C-3.01 18 -2.02 18 -1 18 C-1.33 18.70125 -1.66 19.4025 -2 20.125 C-3.09758996 23.28057113 -3.22620981 25.68225608 -3 29 C-1.95137906 30.25156054 -1.95137906 30.25156054 0.375 30.3125 C3.11093406 30.26732189 3.11093406 30.26732189 4.75 28.1875 C7.38805276 23.57090768 7.62710562 19.18787376 7 14 C6.11449451 11.50589064 5.0728726 9.20596794 3.875 6.84765625 C3 5 3 5 3 3 C2.34 3 1.68 3 1 3 C0.67 2.01 0.34 1.02 0 0 Z " fill="#F9E8E7" transform="translate(54,18)"/>
<path d="M0 0 C1.98 0 3.96 0 6 0 C6.33 44.22 6.66 88.44 7 134 C3 136 3 136 0 136 C0 91.12 0 46.24 0 0 Z " fill="#931F00" transform="translate(0,0)"/>
<path d="M0 0 C1.98 0 3.96 0 6 0 C6 44.88 6 89.76 6 136 C1 135 1 135 0 134 C-0.09627113 132.26640402 -0.12187568 130.52885354 -0.12025452 128.79258728 C-0.12162918 127.66371597 -0.12300385 126.53484467 -0.12442017 125.37176514 C-0.12082489 124.12236145 -0.11722961 122.87295776 -0.11352539 121.58569336 C-0.11367142 120.27856888 -0.11381744 118.9714444 -0.1139679 117.62471008 C-0.11425586 114.02982901 -0.10835928 110.43498103 -0.10139394 106.84010768 C-0.09516026 103.08713748 -0.09455659 99.3341666 -0.09336853 95.58119202 C-0.09025526 88.46969174 -0.08204192 81.35820675 -0.07201904 74.24671322 C-0.06085778 66.15252934 -0.05534742 58.05834474 -0.05032361 49.96415508 C-0.03985931 33.30942775 -0.02225994 16.65471582 0 0 Z " fill="#931F00" transform="translate(110,0)"/>
<path d="M0 0 C7.27023968 0.99965796 13.49339936 5.87957923 18.125 11.4375 C18.74375 12.283125 19.3625 13.12875 20 14 C18.02 14 16.04 14 14 14 C14 12.68 14 11.36 14 10 C12.02 10 10.04 10 8 10 C7.67 11.32 7.34 12.64 7 14 C6.32880451 12.5437455 5.66318193 11.08492133 5 9.625 C4.62875 8.81289063 4.2575 8.00078125 3.875 7.1640625 C3 5 3 5 3 3 C2.34 3 1.68 3 1 3 C0.67 2.01 0.34 1.02 0 0 Z " fill="#FCE1D8" transform="translate(54,18)"/>
<path d="M0 0 C0.66 0 1.32 0 2 0 C2 2.64 2 5.28 2 8 C0.68 8 -0.64 8 -2 8 C-2 9.32 -2 10.64 -2 12 C-3.32 12 -4.64 12 -6 12 C-6 11.34 -6 10.68 -6 10 C-7.32 9.67 -8.64 9.34 -10 9 C-8.63875 8.7215625 -8.63875 8.7215625 -7.25 8.4375 C-2.791964 6.46567638 -2.08018744 4.32038929 0 0 Z " fill="#FBD7C4" transform="translate(62,40)"/>
<path d="M0 0 C-5.75 3 -5.75 3 -8 3 C-8 3.66 -8 4.32 -8 5 C-10.64 5 -13.28 5 -16 5 C-16 3.68 -16 2.36 -16 1 C-13.70952777 0.63818911 -11.41757055 0.28576776 -9.125 -0.0625 C-7.84882812 -0.25972656 -6.57265625 -0.45695312 -5.2578125 -0.66015625 C-2 -1 -2 -1 0 0 Z " fill="#CB4229" transform="translate(52,95)"/>
<path d="M0 0 C5.28 0.66 10.56 1.32 16 2 C16 3.32 16 4.64 16 6 C13.36 6 10.72 6 8 6 C8 5.34 8 4.68 8 4 C6.865625 3.71125 5.73125 3.4225 4.5625 3.125 C3.386875 2.75375 2.21125 2.3825 1 2 C0.67 1.34 0.34 0.68 0 0 Z " fill="#CB4229" transform="translate(64,94)"/>
<path d="M0 0 C0.66 0 1.32 0 2 0 C2 7.92 2 15.84 2 24 C0.68 24.33 -0.64 24.66 -2 25 C-1.67257813 24.21367188 -1.34515625 23.42734375 -1.0078125 22.6171875 C0.27171195 18.02478578 0.21774403 13.86207961 0.125 9.125 C0.11597656 8.24585938 0.10695313 7.36671875 0.09765625 6.4609375 C0.07424577 4.3071729 0.0383801 2.15354986 0 0 Z " fill="#C63F2D" transform="translate(82,48)"/>
<path d="M0 0 C2.81296623 1.40648311 4.5330209 2.98807877 6.625 5.3125 C6.05652344 5.14492187 5.48804687 4.97734375 4.90234375 4.8046875 C-0.65306008 3.33932222 -4.00064828 3.25423764 -9.375 5.3125 C-3.275 -0.94802632 -3.275 -0.94802632 0 0 Z " fill="#FDBBAD" transform="translate(59.375,95.6875)"/>
<path d="M0 0 C4.29 0.33 8.58 0.66 13 1 C13 1.33 13 1.66 13 2 C11.35 2 9.7 2 8 2 C8 2.66 8 3.32 8 4 C5.36 4 2.72 4 0 4 C0 2.68 0 1.36 0 0 Z " fill="#CF280A" transform="translate(48,84)"/>
<path d="M0 0 C0.33 0.99 0.66 1.98 1 3 C0.525625 3.391875 0.05125 3.78375 -0.4375 4.1875 C-2.35179633 6.40808374 -2.61266988 8.13375709 -3 11 C-5.64 11 -8.28 11 -11 11 C-10.29875 10.484375 -9.5975 9.96875 -8.875 9.4375 C-5.50532643 6.58060284 -2.78843396 3.41128003 0 0 Z " fill="#C83419" transform="translate(79,73)"/>
<path d="M0 0 C0.8353125 0.556875 0.8353125 0.556875 1.6875 1.125 C0.6975 2.115 -0.2925 3.105 -1.3125 4.125 C-0.6525 4.455 0.0075 4.785 0.6875 5.125 C-0.3125 6.125 -0.3125 6.125 -2.875 6.1875 C-4.0815625 6.1565625 -4.0815625 6.1565625 -5.3125 6.125 C-5.3125 4.805 -5.3125 3.485 -5.3125 2.125 C-5.9725 1.795 -6.6325 1.465 -7.3125 1.125 C-2.88173077 -1.09038462 -2.88173077 -1.09038462 0 0 Z " fill="#C22C11" transform="translate(53.3125,95.875)"/>
<path d="M0 0 C1.32 0 2.64 0 4 0 C3.67 1.65 3.34 3.3 3 5 C3.66 5 4.32 5 5 5 C5 5.99 5 6.98 5 8 C3.35 8 1.7 8 0 8 C0 5.36 0 2.72 0 0 Z " fill="#C12B15" transform="translate(52,16)"/>
<path d="M0 0 C2.65269897 2.47585238 4.68010103 4.59026101 6 8 C6 8.99 6 9.98 6 11 C4.68 11 3.36 11 2 11 C2 8.36 2 5.72 2 3 C1.34 3 0.68 3 0 3 C0 2.01 0 1.02 0 0 Z " fill="#FDDFCF" transform="translate(74,33)"/>
<path d="M0 0 C2.97 0 5.94 0 9 0 C5.68987756 3.31012244 4.46840411 3.50351065 0 4 C0 2.68 0 1.36 0 0 Z " fill="#F9DBCF" transform="translate(64,80)"/>
<path d="M0 0 C-1.45381897 0.69699552 -2.91322953 1.38233866 -4.375 2.0625 C-5.18710937 2.44535156 -5.99921875 2.82820313 -6.8359375 3.22265625 C-7.55007812 3.47917969 -8.26421875 3.73570313 -9 4 C-9.66 3.67 -10.32 3.34 -11 3 C-11 2.34 -11 1.68 -11 1 C-9.5437328 0.63743142 -8.08488815 0.28520207 -6.625 -0.0625 C-5.40683594 -0.35833984 -5.40683594 -0.35833984 -4.1640625 -0.66015625 C-2 -1 -2 -1 0 0 Z " fill="#FBAC97" transform="translate(52,95)"/>
<path d="M0 0 C0.33 0 0.66 0 1 0 C1 4.95 1 9.9 1 15 C0.67 14.01 0.34 13.02 0 12 C-0.66 12 -1.32 12 -2 12 C-2 10.68 -2 9.36 -2 8 C-1.34 8 -0.68 8 0 8 C0 5.36 0 2.72 0 0 Z " fill="#FED9C4" transform="translate(82,52)"/>
<path d="M0 0 C3.68754757 0.49831724 5.60490662 1.10067643 8 4 C7.34 4 6.68 4 6 4 C5.67 4.99 5.34 5.98 5 7 C4.34 5.68 3.68 4.36 3 3 C2.34 3 1.68 3 1 3 C0.67 2.01 0.34 1.02 0 0 Z " fill="#FFCDBF" transform="translate(54,18)"/>
<path d="M0 0 C3.63 0.66 7.26 1.32 11 2 C11 2.99 11 3.98 11 5 C9.35153231 4.55123384 7.70626545 4.09069512 6.0625 3.625 C5.14597656 3.36976562 4.22945313 3.11453125 3.28515625 2.8515625 C1 2 1 2 0 0 Z " fill="#FBB39F" transform="translate(64,94)"/>
<path d="M0 0 C-0.66 1.65 -1.32 3.3 -2 5 C-4.97 4.505 -4.97 4.505 -8 4 C-5.29881977 1.17603885 -4.05589853 0 0 0 Z " fill="#FFD7C5" transform="translate(53,36)"/>
<path d="M0 0 C0 0.99 0 1.98 0 3 C-2.64 3 -5.28 3 -8 3 C-8 2.34 -8 1.68 -8 1 C-5.23735711 0.40267181 -2.83967231 0 0 0 Z " fill="#C61500" transform="translate(64,85)"/>
<path d="M0 0 C1.98 0 3.96 0 6 0 C6 1.65 6 3.3 6 5 C1.125 2.25 1.125 2.25 0 0 Z " fill="#FBC6BF" transform="translate(38,76)"/>
<path d="M0 0 C0.33 0 0.66 0 1 0 C1 2.64 1 5.28 1 8 C-0.32 8.33 -1.64 8.66 -3 9 C-2.01 6.03 -1.02 3.06 0 0 Z " fill="#C63216" transform="translate(83,64)"/>
<path d="M0 0 C1.68762851 1.6454378 3.3540349 3.31288577 5 5 C5 5.33 5 5.66 5 6 C3.35 6 1.7 6 0 6 C0 4.02 0 2.04 0 0 Z " fill="#BE2711" transform="translate(36,74)"/>
<path d="M0 0 C0.66 0.33 1.32 0.66 2 1 C2 2.32 2 3.64 2 5 C0.68 5 -0.64 5 -2 5 C-2 3.68 -2 2.36 -2 1 C-1.34 0.67 -0.68 0.34 0 0 Z " fill="#FBE7D6" transform="translate(50,47)"/>
<path d="M0 0 C1.65 0 3.3 0 5 0 C5 1.98 5 3.96 5 6 C3.31237149 4.3545622 1.6459651 2.68711423 0 1 C0 0.67 0 0.34 0 0 Z " fill="#C13117" transform="translate(71,28)"/>
</svg>
