<?xml version="1.0" encoding="UTF-8"?>
<svg version="1.1" xmlns="http://www.w3.org/2000/svg" width="116" height="136">
<path d="M0 0 C38.28 0 76.56 0 116 0 C116 44.88 116 89.76 116 136 C112.26584263 135.25316853 109.79076609 134.61063957 106.44433594 133.09814453 C105.57282898 132.7074881 104.70132202 132.31683167 103.80340576 131.91433716 C102.87312561 131.49143402 101.94284546 131.06853088 100.984375 130.6328125 C100.01397278 130.19742157 99.04357056 129.76203064 98.04376221 129.31344604 C94.94362456 127.92216552 91.84653106 126.52428739 88.75 125.125 C85.66763065 123.73313342 82.58458195 122.34289675 79.49908447 120.95797729 C77.58165825 120.09729795 75.66597964 119.23271073 73.75238037 118.36355591 C71.18130096 117.20916205 68.59348897 116.10288163 66 115 C65.24404541 114.63939987 64.48809082 114.27879974 63.70922852 113.90727234 C59.26597246 112.01787979 56.56837205 111.76424137 51.99023438 113.43188477 C50.17780864 114.23850724 48.37929635 115.07691154 46.59375 115.94140625 C45.62900757 116.3800853 44.66426514 116.81876434 43.67028809 117.27073669 C40.60017415 118.67423997 37.55063558 120.11722101 34.5 121.5625 C32.45046022 122.50855357 30.39968759 123.45194109 28.34765625 124.39257812 C24.56043163 126.13275522 20.78124723 127.8883298 17.00976562 129.66235352 C15.34026532 130.44247184 13.67035239 131.22170779 12 132 C11.16106201 132.39347626 10.32212402 132.78695251 9.45776367 133.19235229 C8.65894775 133.55934235 7.86013184 133.9263324 7.03710938 134.30444336 C5.97719788 134.79538734 5.97719788 134.79538734 4.89587402 135.29624939 C3 136 3 136 0 136 C0 91.12 0 46.24 0 0 Z " fill="#019037" transform="translate(0,0)"/>
<path d="M0 0 C1.98 0 3.96 0 6 0 C6 44.88 6 89.76 6 136 C1 135 1 135 -1 133 C-1.23047829 130.67679405 -1.23047829 130.67679405 -1.20254517 127.71029663 C-1.19688034 126.58846481 -1.19121552 125.466633 -1.18537903 124.31080627 C-1.16883774 123.0743486 -1.15229645 121.83789093 -1.13525391 120.56396484 C-1.12579239 119.26644791 -1.11633087 117.96893097 -1.10658264 116.63209534 C-1.08036564 113.06815414 -1.04170062 109.50444242 -1.00085878 105.94064283 C-0.96029924 102.21843425 -0.9311066 98.4961373 -0.90072632 94.77383423 C-0.84143885 87.72249094 -0.77187686 80.67128764 -0.69865549 73.62007678 C-0.61580514 65.59364937 -0.54435997 57.56713326 -0.47388959 49.54058909 C-0.32864871 33.02692698 -0.16903056 16.5134361 0 0 Z " fill="#00562F" transform="translate(110,0)"/>
<path d="M0 0 C1.98 0 3.96 0 6 0 C6.33 44.22 6.66 88.44 7 134 C3 136 3 136 0 136 C0 91.12 0 46.24 0 0 Z " fill="#00562F" transform="translate(0,0)"/>
<path d="M0 0 C0.11662261 4.04142215 0.1873935 8.08240865 0.25 12.125 C0.30027344 13.83816406 0.30027344 13.83816406 0.3515625 15.5859375 C0.47665944 26.34427418 0.47665944 26.34427418 -4 31 C-6.33979799 32.98914515 -8.78327575 34.76037499 -11.3125 36.5 C-21.75008658 43.04346022 -21.75008658 43.04346022 -28 53 C-28.33 53 -28.66 53 -29 53 C-29.0583721 48.64589022 -29.09372173 44.29188207 -29.125 39.9375 C-29.14175781 38.70837891 -29.15851562 37.47925781 -29.17578125 36.21289062 C-29.24204009 23.921875 -29.24204009 23.921875 -27 19 C-24.671875 16.69921875 -24.671875 16.69921875 -21.75 14.6875 C-20.15478516 13.56601562 -20.15478516 13.56601562 -18.52734375 12.421875 C-17.95870605 12.03322266 -17.39006836 11.64457031 -16.80419922 11.24414062 C-14.89116804 9.9249516 -13.00861477 8.56933154 -11.12890625 7.203125 C-1.19581827 0 -1.19581827 0 0 0 Z " fill="#E1F5EC" transform="translate(89,29)"/>
<path d="M0 0 C6.74851211 4.10789416 13.2092642 8.49424774 19.5625 13.1875 C20.26503906 13.69829102 20.96757813 14.20908203 21.69140625 14.73535156 C22.35140625 15.22874023 23.01140625 15.72212891 23.69140625 16.23046875 C24.28123291 16.66770264 24.87105957 17.10493652 25.47875977 17.55541992 C28.22695161 20.1651216 28.94344914 22.24671826 29.22705078 26.02441406 C29.21657715 27.17651367 29.20610352 28.32861328 29.1953125 29.515625 C29.18886719 30.76601563 29.18242188 32.01640625 29.17578125 33.3046875 C29.15902344 34.60664062 29.14226563 35.90859375 29.125 37.25 C29.11597656 38.56742188 29.10695313 39.88484375 29.09765625 41.2421875 C29.07408533 44.49497462 29.04118022 47.74739589 29 51 C28.42040527 50.23558594 27.84081055 49.47117188 27.24365234 48.68359375 C25.26831408 46.32092583 23.61823635 44.77629714 21.1015625 43.0625 C20.37453125 42.55976562 19.6475 42.05703125 18.8984375 41.5390625 C17.77308594 40.77722656 17.77308594 40.77722656 16.625 40 C13.73372269 38.02228601 10.85508724 36.02966977 8 34 C7.40413086 33.57847656 6.80826172 33.15695313 6.19433594 32.72265625 C2.39708687 29.8361014 0.86371094 27.68110005 0 23 C-0.21326218 19.03626499 -0.18852553 15.09290228 -0.125 11.125 C-0.11597656 10.05507813 -0.10695313 8.98515625 -0.09765625 7.8828125 C-0.07419342 5.25497561 -0.04136459 2.62760594 0 0 Z " fill="#E2F5EC" transform="translate(27,29)"/>
<path d="M0 0 C1.32 0 2.64 0 4 0 C4.33 0.99 4.66 1.98 5 3 C6.6635479 3.67441131 8.33066942 4.3400321 10 5 C12.3125 7.125 12.3125 7.125 14 9 C13.13375 8.649375 12.2675 8.29875 11.375 7.9375 C7.68820766 6.91339102 5.67859459 7.12033608 2 8 C1.21625 8.185625 0.4325 8.37125 -0.375 8.5625 C-0.91125 8.706875 -1.4475 8.85125 -2 9 C-1.34 7.35 -0.68 5.7 0 4 C-3.63 5.32 -7.26 6.64 -11 8 C-11 7.34 -11 6.68 -11 6 C-12.32 5.67 -13.64 5.34 -15 5 C-13.04848373 3.04848373 -9.54831255 3.29031251 -6.9375 2.9375 C-5.64714844 2.76089844 -4.35679688 2.58429688 -3.02734375 2.40234375 C-2.02832031 2.26957031 -1.02929688 2.13679688 0 2 C0 1.34 0 0.68 0 0 Z " fill="#26984F" transform="translate(52,92)"/>
<path d="M0 0 C1.32 0 2.64 0 4 0 C4 9.24 4 18.48 4 28 C2.68 28 1.36 28 0 28 C0 18.76 0 9.52 0 0 Z " fill="#038533" transform="translate(88,28)"/>
<path d="M0 0 C2.64 0 5.28 0 8 0 C7.67 1.32 7.34 2.64 7 4 C6.01 3.34 5.02 2.68 4 2 C3.67 9.26 3.34 16.52 3 24 C2.01 24 1.02 24 0 24 C0 16.08 0 8.16 0 0 Z " fill="#018531" transform="translate(24,28)"/>
<path d="M0 0 C1.95918968 0.05991406 3.91751529 0.14867138 5.875 0.25 C6.96554688 0.29640625 8.05609375 0.3428125 9.1796875 0.390625 C12 1 12 1 13.3828125 3.046875 C13.58648437 3.69140625 13.79015625 4.3359375 14 5 C8.34388537 5.56561146 4.77357872 3.71391278 0 1 C0 0.67 0 0.34 0 0 Z " fill="#6CCB90" transform="translate(66,95)"/>
<path d="M0 0 C2.64 0 5.28 0 8 0 C7.59007813 0.47050781 7.18015625 0.94101563 6.7578125 1.42578125 C5.94957031 2.35970703 5.94957031 2.35970703 5.125 3.3125 C4.59132813 3.92738281 4.05765625 4.54226562 3.5078125 5.17578125 C1.8359553 7.13498212 1.8359553 7.13498212 0 10 C0 6.7 0 3.4 0 0 Z " fill="#C6F2E0" transform="translate(60,72)"/>
<path d="M0 0 C2.81296623 1.40648311 4.5330209 2.98807877 6.625 5.3125 C5.75875 4.961875 4.8925 4.61125 4 4.25 C0.31320766 3.22589102 -1.69640541 3.43283608 -5.375 4.3125 C-6.15875 4.498125 -6.9425 4.68375 -7.75 4.875 C-8.28625 5.019375 -8.8225 5.16375 -9.375 5.3125 C-8 3.8125 -8 3.8125 -6.375 2.3125 C-5.715 2.3125 -5.055 2.3125 -4.375 2.3125 C-4.375 1.6525 -4.375 0.9925 -4.375 0.3125 C-2.375 -0.6875 -2.375 -0.6875 0 0 Z " fill="#A9F0C6" transform="translate(59.375,95.6875)"/>
<path d="M0 0 C1.32 0 2.64 0 4 0 C4 0.66 4 1.32 4 2 C4.99 2.33 5.98 2.66 7 3 C6.01 3.495 6.01 3.495 5 4 C4.01 5.485 4.01 5.485 3 7 C2.401875 6.505 1.80375 6.01 1.1875 5.5 C-0.97029994 3.71723582 -0.97029994 3.71723582 -4 4 C-4 3.34 -4 2.68 -4 2 C-2.68 2 -1.36 2 0 2 C0 1.34 0 0.68 0 0 Z " fill="#1C9649" transform="translate(60,92)"/>
<path d="M0 0 C-2.97 1.32 -5.94 2.64 -9 4 C-9 3.34 -9 2.68 -9 2 C-10.32 1.67 -11.64 1.34 -13 1 C-9.98130187 -2.01869813 -3.65797796 -0.91449449 0 0 Z " fill="#8DDAAB" transform="translate(50,96)"/>
<path d="M0 0 C1.65 0 3.3 0 5 0 C3.375 5.75 3.375 5.75 0 8 C0 5.36 0 2.72 0 0 Z " fill="#D1F5E9" transform="translate(84,52)"/>
<path d="M0 0 C2.31 0 4.62 0 7 0 C7 2.64 7 5.28 7 8 C6.401875 7.236875 5.80375 6.47375 5.1875 5.6875 C3.53040668 3.6516425 1.89702326 1.8021721 0 0 Z " fill="#108A3E" transform="translate(49,44)"/>
<path d="M0 0 C2.64 0 5.28 0 8 0 C8 1.98 8 3.96 8 6 C6.66402348 5.19185349 5.331275 4.37836819 4 3.5625 C3.2575 3.11003906 2.515 2.65757813 1.75 2.19140625 C1.1725 1.79824219 0.595 1.40507813 0 1 C0 0.67 0 0.34 0 0 Z " fill="#128C40" transform="translate(32,32)"/>
<path d="M0 0 C0.33 0 0.66 0 1 0 C1 1.98 1 3.96 1 6 C-1.31 6 -3.62 6 -6 6 C-4 4 -2 2 0 0 Z " fill="#148F43" transform="translate(75,66)"/>
<path d="M0 0 C1.32 0 2.64 0 4 0 C4 2.64 4 5.28 4 8 C2 6.25 2 6.25 0 4 C0 2.68 0 1.36 0 0 Z " fill="#D3F5EE" transform="translate(28,52)"/>
<path d="M0 0 C5.78461538 3.44615385 5.78461538 3.44615385 6.875 6.25 C6.936875 7.11625 6.936875 7.11625 7 8 C6.01 8 5.02 8 4 8 C4 6.68 4 5.36 4 4 C2.68 4 1.36 4 0 4 C0 2.68 0 1.36 0 0 Z " fill="#CEF3D9" transform="translate(48,44)"/>
<path d="M0 0 C2.64 0 5.28 0 8 0 C8 0.99 8 1.98 8 3 C5.36 2.67 2.72 2.34 0 2 C0 1.34 0 0.68 0 0 Z " fill="#05832C" transform="translate(64,92)"/>
<path d="M0 0 C2.64 0 5.28 0 8 0 C8 0.66 8 1.32 8 2 C5.36 2.33 2.72 2.66 0 3 C0 2.01 0 1.02 0 0 Z " fill="#00822B" transform="translate(44,92)"/>
<path d="M0 0 C1.65 0.99 3.3 1.98 5 3 C4.67 3.99 4.34 4.98 4 6 C2.68 6 1.36 6 0 6 C0 4.02 0 2.04 0 0 Z " fill="#108E41" transform="translate(40,66)"/>
<path d="M0 0 C1.32 0 2.64 0 4 0 C4.33 0.99 4.66 1.98 5 3 C2.525 4.485 2.525 4.485 0 6 C0 4.02 0 2.04 0 0 Z " fill="#129240" transform="translate(76,32)"/>
<path d="M0 0 C2.475 0.99 2.475 0.99 5 2 C4.67 3.32 4.34 4.64 4 6 C2.68 5.34 1.36 4.68 0 4 C0 2.68 0 1.36 0 0 Z " fill="#068636" transform="translate(64,95)"/>
</svg>
