<?xml version="1.0" encoding="UTF-8"?>
<svg version="1.1" xmlns="http://www.w3.org/2000/svg" width="25" height="29">
<path d="M0 0 C8.25 0 16.5 0 25 0 C25 9.57 25 19.14 25 29 C21.23810309 28.24762062 19.42283733 27.78069823 16.25 26.1875 C13.56186963 25.11632851 12.40373158 24.88352638 9.58984375 25.6953125 C8.02957275 26.42090194 6.49017356 27.19386968 4.98046875 28.01953125 C3 29 3 29 0 29 C0 19.43 0 9.86 0 0 Z " fill="#235EAE" transform="translate(0,0)"/>
<path d="M0 0 C0.66 0 1.32 0 2 0 C2 9.57 2 19.14 2 29 C-1.85006136 28.22998773 -4.00776573 27.6738858 -7.3125 25.9375 C-8.00988281 25.57527344 -8.70726562 25.21304687 -9.42578125 24.83984375 C-9.94527344 24.56269531 -10.46476563 24.28554688 -11 24 C-10.67 23.34 -10.34 22.68 -10 22 C-8.68 22 -7.36 22 -6 22 C-6 21.34 -6 20.68 -6 20 C-7.65 19.67 -9.3 19.34 -11 19 C-9.33784732 17.66104368 -7.67036393 16.32869858 -6 15 C-5.278125 14.4225 -4.55625 13.845 -3.8125 13.25 C-2 12 -2 12 0 12 C0 8.04 0 4.08 0 0 Z " fill="#1F5AAB" transform="translate(23,0)"/>
<path d="M0 0 C0.33 0.99 0.66 1.98 1 3 C1.99 2.67 2.98 2.34 4 2 C4.33 1.34 4.66 0.68 5 0 C5.99 0.33 6.98 0.66 8 1 C8.125 4.375 8.125 4.375 8 8 C6 10 6 10 3.0625 10.3125 C0 10 0 10 -1.875 8.875 C-3.4682099 6.21965017 -3.20214032 4.03210482 -3 1 C-2.01 0.67 -1.02 0.34 0 0 Z " fill="#CDDAEC" transform="translate(10,7)"/>
<path d="M0 0 C0.66 0 1.32 0 2 0 C2.1969993 4.0829333 2.38095476 8.16635266 2.5625 12.25 C2.61857422 13.40886719 2.67464844 14.56773438 2.73242188 15.76171875 C2.78076172 16.87675781 2.82910156 17.99179687 2.87890625 19.140625 C2.9260376 20.16704102 2.97316895 21.19345703 3.02172852 22.25097656 C3.00222257 24.71880683 2.72799029 26.65670465 2 29 C1.34 29 0.68 29 0 29 C0 19.43 0 9.86 0 0 Z " fill="#0C3E79" transform="translate(0,0)"/>
<path d="M0 0 C0.66 0 1.32 0 2 0 C2 9.57 2 19.14 2 29 C1.34 29 0.68 29 0 29 C-0.87562914 25.30584744 -1.06117252 22.04880677 -0.87890625 18.26171875 C-0.80639648 16.66166992 -0.80639648 16.66166992 -0.73242188 15.02929688 C-0.67634766 13.92650391 -0.62027344 12.82371094 -0.5625 11.6875 C-0.51029297 10.56537109 -0.45808594 9.44324219 -0.40429688 8.28710938 C-0.2749801 5.52443291 -0.14002857 2.76215082 0 0 Z " fill="#0C3E79" transform="translate(23,0)"/>
<path d="M0 0 C0.763125 0.20625 1.52625 0.4125 2.3125 0.625 C1.6525 1.945 0.9925 3.265 0.3125 4.625 C-0.6775 4.625 -1.6675 4.625 -2.6875 4.625 C-3.0175 3.965 -3.3475 3.305 -3.6875 2.625 C-4.3475 2.295 -5.0075 1.965 -5.6875 1.625 C-2.6875 -0.375 -2.6875 -0.375 0 0 Z " fill="#739ACB" transform="translate(13.6875,5.375)"/>
<path d="M0 0 C2 1 2 1 2 1 Z " fill="#008080" transform="translate(18,28)"/>
<path d="M0 0 C2 1 2 1 2 1 Z " fill="#008080" transform="translate(5,28)"/>
<path d="M0 0 C2 1 2 1 2 1 Z " fill="#002AD4" transform="translate(16,27)"/>
<path d="M0 0 C2 1 2 1 2 1 Z " fill="#002AD4" transform="translate(7,27)"/>
<path d="" fill="#008080" transform="translate(0,0)"/>
<path d="" fill="#008080" transform="translate(0,0)"/>
<path d="" fill="#008080" transform="translate(0,0)"/>
</svg>
